<svg width="326" height="206" viewBox="0 0 326 206" fill="none" xmlns="http://www.w3.org/2000/svg">
<path d="M99.7966 56.2781V183.407C99.7966 186.179 103.278 188.22 111.087 190.012C111.696 190.152 111.593 191.052 110.973 191.052H72.3096C71.5039 191.052 70.7808 191.653 70.7085 192.463C70.6156 193.394 71.3386 194.174 72.2476 194.174H150.67C155.587 194.344 160.69 194.434 165.885 194.434C171.081 194.434 176.184 194.344 181.101 194.174H259.461C260.267 194.174 260.99 193.574 261.062 192.763C261.155 191.833 260.432 191.052 259.523 191.052H220.798C220.178 191.052 220.074 190.152 220.684 190.012C228.493 188.21 231.974 186.179 231.974 183.407V54.7572C231.974 54.527 231.788 54.3369 231.551 54.3369H231.53C231.396 54.3369 231.282 54.2769 231.199 54.1668C230.001 52.6559 226.913 50.9048 218.566 49.2137C211.222 47.7228 201.213 46.5721 189.612 45.9117C188.714 45.8616 187.949 46.6021 187.98 47.5327C188.011 48.3432 188.703 48.9836 189.509 49.0336C200.913 49.694 210.736 50.8147 217.926 52.2756C223.679 53.4464 226.427 54.5671 227.729 55.3275C228.462 55.7578 228.462 56.8385 227.729 57.2687C225.766 58.3894 220.963 60.0705 210.675 61.5314C200.2 63.0223 186.751 63.9429 172.331 64.153C172.961 63.5427 173.56 62.8422 174.097 62.0717C175.688 59.8003 176.742 57.1087 177.145 54.2969C177.971 48.5233 175.812 44.1105 173.302 39.0074C171.97 36.3057 170.596 33.5039 169.428 30.1018C167.115 23.3576 166.123 15.4727 166.484 6.66718L166.743 0.273193L163.592 5.82666C163.375 6.19689 158.345 15.1425 155.132 26.7297C150.804 42.3094 151.992 55.1174 158.562 63.7528C158.665 63.8929 158.768 64.023 158.882 64.143C144.803 63.9229 131.684 63.0223 121.365 61.5714C113.008 60.3907 108.226 59.0699 105.623 58.0092C104.094 57.3888 104.104 55.1975 105.623 54.5671C107.234 53.8966 109.796 53.1061 113.845 52.2856C121.034 50.8247 130.858 49.704 142.272 49.0436C143.078 48.9936 143.77 48.3632 143.801 47.5427C143.832 46.6121 143.078 45.8716 142.169 45.9217C130.579 46.5921 120.559 47.7328 113.215 49.2237C104.899 50.9148 101.811 52.6559 100.592 54.1768C100.509 54.2769 100.385 54.3469 100.251 54.3469H100.231C99.9929 54.3469 99.807 54.537 99.807 54.7772V56.2881L99.7966 56.2781ZM106.955 80.8434C106.955 79.1424 108.257 77.7415 109.94 77.6414C120.404 76.991 146.693 76.1405 159.801 82.8147C159.822 82.8147 159.843 82.8347 159.863 82.8447C159.925 82.8747 159.998 82.9147 160.06 82.9448C172.806 89.6289 194.436 96.5833 209.941 96.5833C214.548 96.5833 218.618 95.9729 221.748 94.552L221.779 94.532C223.163 93.9016 224.733 94.9222 224.733 96.4632V180.205C224.506 180.476 223.173 181.676 216.531 183.027C205.448 185.279 186.493 186.619 165.844 186.619C145.195 186.619 126.251 185.279 115.157 183.027C108.515 181.676 107.172 180.476 106.945 180.205V80.8334L106.955 80.8434ZM224.733 88.3982C224.733 88.6883 224.64 88.9685 224.454 89.1887C223.855 89.8791 222.585 90.7696 220.488 91.7202C209.538 96.6633 184.355 90.4795 167.424 83.0248V81.8641C177.527 80.5433 189.964 80.4032 201.481 81.5539C215.819 82.9848 222.688 85.7165 224.423 87.5676C224.63 87.7878 224.733 88.088 224.733 88.3882V88.3982ZM163.355 13.2413C163.603 19.7754 164.646 25.7691 166.484 31.1024C167.714 34.6947 169.201 37.7165 170.513 40.3782C172.889 45.2112 174.759 49.0236 174.066 53.8366C173.736 56.1681 172.858 58.3794 171.556 60.2606C170.585 61.6515 169.108 63.0724 167.424 63.7628V61.6315C167.424 60.7709 166.732 60.0705 165.875 60.0705C165.018 60.0705 164.326 60.7709 164.326 61.6315V64.053C164.326 64.053 164.253 64.043 164.212 64.033L164.119 64.013C164.047 63.9929 162.342 63.6127 160.999 61.8416C150.091 47.4926 158.458 24.1081 163.365 13.2413H163.355ZM105.901 61.4413C109.238 62.6021 113.99 63.6327 120.012 64.5233C131.911 66.2644 147.592 67.255 164.315 67.305V79.1724C163.076 79.3725 161.878 79.5827 160.721 79.8228C143.728 71.5276 108.701 74.5595 105.385 74.8697H103.846V75.9804C103.784 76.1705 103.763 76.3807 103.784 76.5908C103.784 76.7009 103.815 76.8009 103.846 76.901V180.376C103.846 182.877 107.038 184.588 114.537 186.109C125.817 188.401 144.989 189.771 165.834 189.771C186.679 189.771 205.851 188.401 217.131 186.109C224.619 184.588 227.822 182.867 227.822 180.376V89.3988C227.997 88.7684 227.997 88.118 227.822 87.4576V87.0673H227.698C225.621 81.6539 210.613 79.3625 201.77 78.472C190.005 77.2912 177.682 77.4113 167.414 78.7321V67.315C184.272 67.255 200.066 66.2543 211.976 64.4932C217.926 63.6127 222.616 62.5821 225.911 61.4313H225.942C227.367 60.921 228.865 61.9917 228.865 63.5226V183.407C228.865 183.407 228.307 185.078 219.981 187C210.943 189.081 196.988 190.512 181.07 191.082H150.701C134.783 190.522 120.828 189.081 111.789 187C105.106 185.459 103.433 184.088 103.03 183.618C102.947 183.527 102.906 183.407 102.906 183.277V63.5827C102.906 62.0217 104.435 60.931 105.901 61.4413C105.901 61.4413 105.922 61.4413 105.932 61.4514L105.901 61.4413Z" fill="black"/>
<path d="M48.2417 202.669C47.3843 202.669 46.6922 203.37 46.6922 204.23C46.6922 205.091 47.3843 205.791 48.2417 205.791H283.498C284.355 205.791 285.048 205.091 285.048 204.23C285.048 203.37 284.355 202.669 283.498 202.669H48.2417Z" fill="#11324D"/>
</svg>
